$MeshFormat
4.1 0 8
$EndMeshFormat
$PhysicalNames
6
1 1 "Bottom"
1 2 "Right"
1 3 "Top"
1 4 "Left"
1 5 "Dirichlet"
2 6 "Domain"
$EndPhysicalNames
$Entities
4 4 1 0
1 0 0 0 0 
2 1 0 0 0 
3 1 1 0 0 
4 0 1 0 0 
1 0 0 0 1 0 0 2 1 5 2 1 -2 
2 1 0 0 1 1 0 2 2 5 2 2 -3 
3 0 1 0 1 1 0 2 3 5 2 3 -4 
4 0 0 0 0 1 0 2 4 5 2 4 -1 
1 0 0 0 1 1 0 1 6 4 1 2 3 4 
$EndEntities
$Nodes
9 513 1 513
0 1 0 1
1
0 0 0
0 2 0 1
2
1 0 0
0 3 0 1
3
1 1 0
0 4 0 1
4
0 1 0
1 1 0 19
5
6
7
8
9
10
11
12
13
14
15
16
17
18
19
20
21
22
23
0.04999999999989967 0 0
0.09999999999981468 0 0
0.1499999999997036 0 0
0.1999999999995579 0 0
0.2499999999994122 0 0
0.2999999999992664 0 0
0.3499999999991207 0 0
0.399999999998975 0 0
0.4499999999988292 0 0
0.4999999999986943 0 0
0.5499999999988151 0 0
0.5999999999989468 0 0
0.6499999999990784 0 0
0.69999999999921 0 0
0.7499999999993417 0 0
0.7999999999994734 0 0
0.8499999999996051 0 0
0.8999999999997368 0 0
0.9499999999998684 0 0
1 2 0 19
24
25
26
27
28
29
30
31
32
33
34
35
36
37
38
39
40
41
42
1 0.04999999999989967 0
1 0.09999999999981468 0
1 0.1499999999997036 0
1 0.1999999999995579 0
1 0.2499999999994122 0
1 0.2999999999992664 0
1 0.3499999999991207 0
1 0.399999999998975 0
1 0.4499999999988292 0
1 0.4999999999986943 0
1 0.5499999999988151 0
1 0.5999999999989468 0
1 0.6499999999990784 0
1 0.69999999999921 0
1 0.7499999999993417 0
1 0.7999999999994734 0
1 0.8499999999996051 0
1 0.8999999999997368 0
1 0.9499999999998684 0
1 3 0 19
43
44
45
46
47
48
49
50
51
52
53
54
55
56
57
58
59
60
61
0.9499999999997918 1 0
0.8999999999995836 1 0
0.8499999999996529 1 0
0.7999999999999998 1 0
0.7500000000003466 1 0
0.7000000000006934 1 0
0.6500000000010401 1 0
0.6000000000013869 1 0
0.5500000000017335 1 0
0.5000000000020587 1 0
0.4500000000018723 1 0
0.4000000000016644 1 0
0.3500000000014564 1 0
0.3000000000012483 1 0
0.2500000000010403 1 0
0.2000000000008322 1 0
0.1500000000006241 1 0
0.100000000000416 1 0
0.05000000000020799 1 0
1 4 0 19
62
63
64
65
66
67
68
69
70
71
72
73
74
75
76
77
78
79
80
0 0.9499999999997918 0
0 0.8999999999995836 0
0 0.8499999999996529 0
0 0.7999999999999998 0
0 0.7500000000003466 0
0 0.7000000000006934 0
0 0.6500000000010401 0
0 0.6000000000013869 0
0 0.5500000000017335 0
0 0.5000000000020587 0
0 0.4500000000018723 0
0 0.4000000000016644 0
0 0.3500000000014564 0
0 0.3000000000012483 0
0 0.2500000000010403 0
0 0.2000000000008322 0
0 0.1500000000006241 0
0 0.100000000000416 0
0 0.05000000000020799 0
2 1 0 433
81
82
83
84
85
86
87
88
89
90
91
92
93
94
95
96
97
98
99
100
101
102
103
104
105
106
107
108
109
110
111
112
113
114
115
116
117
118
119
120
121
122
123
124
125
126
127
128
129
130
131
132
133
134
135
136
137
138
139
140
141
142
143
144
145
146
147
148
149
150
151
152
153
154
155
156
157
158
159
160
161
162
163
164
165
166
167
168
169
170
171
172
173
174
175
176
177
178
179
180
181
182
183
184
185
186
187
188
189
190
191
192
193
194
195
196
197
198
199
200
201
202
203
204
205
206
207
208
209
210
211
212
213
214
215
216
217
218
219
220
221
222
223
224
225
226
227
228
229
230
231
232
233
234
235
236
237
238
239
240
241
242
243
244
245
246
247
248
249
250
251
252
253
254
255
256
257
258
259
260
261
262
263
264
265
266
267
268
269
270
271
272
273
274
275
276
277
278
279
280
281
282
283
284
285
286
287
288
289
290
291
292
293
294
295
296
297
298
299
300
301
302
303
304
305
306
307
308
309
310
311
312
313
314
315
316
317
318
319
320
321
322
323
324
325
326
327
328
329
330
331
332
333
334
335
336
337
338
339
340
341
342
343
344
345
346
347
348
349
350
351
352
353
354
355
356
357
358
359
360
361
362
363
364
365
366
367
368
369
370
371
372
373
374
375
376
377
378
379
380
381
382
383
384
385
386
387
388
389
390
391
392
393
394
395
396
397
398
399
400
401
402
403
404
405
406
407
408
409
410
411
412
413
414
415
416
417
418
419
420
421
422
423
424
425
426
427
428
429
430
431
432
433
434
435
436
437
438
439
440
441
442
443
444
445
446
447
448
449
450
451
452
453
454
455
456
457
458
459
460
461
462
463
464
465
466
467
468
469
470
471
472
473
474
475
476
477
478
479
480
481
482
483
484
485
486
487
488
489
490
491
492
493
494
495
496
497
498
499
500
501
502
503
504
505
506
507
508
509
510
511
512
513
0.4750000000019655 0.9566987298108381 0
0.05046656420038709 0.4771882790972399 0
0.5249999999987547 0.04330127018921581 0
0.9660075803079151 0.5234502641686714 0
0.0433012701889216 0.6750000000008667 0
0.6750000000009553 0.956698729811321 0
0.3249999999991935 0.04330127018909571 0
0.9561292873109415 0.3255151029577577 0
0.3250000000020248 0.9566987298106971 0
0.04225535043594819 0.3250000000014422 0
0.9628218759964475 0.6742734396871652 0
0.6749999999991443 0.0433012701893359 0
0.8249999999998365 0.95669872981118 0
0.04442715103599509 0.8254600999506849 0
0.04188217555022795 0.1780347135139138 0
0.8270021786645306 0.04191013759588032 0
0.1750000000013638 0.9566987298107144 0
0.9516575057680479 0.8297603025592368 0
0.9555728489640976 0.1745399000489724 0
0.1749999999996308 0.04330127018909573 0
0.4271997259758864 0.04464499979709913 0
0.9551316715113672 0.4225429761625026 0
0.03957139431641591 0.5760950406926106 0
0.5750000000015448 0.9566987298110613 0
0.9230662432699767 0.9578151847792151 0
0.04528486237225463 0.9204087190468542 0
0.04240819999735912 0.07491856826831378 0
0.9230662432700291 0.04218481522084831 0
0.4250000000018942 0.9566987298108228 0
0.4500000000020634 0.913397459621806 0
0.4000000000022988 0.9133974596216499 0
0.4250000000023256 0.8700961894327535 0
0.475000000002088 0.8700961894329198 0
0.4500000000023217 0.8267949192438686 0
0.5000000000020679 0.8267949192440432 0
0.4750000000023085 0.7834936490549762 0
0.5250000000020127 0.7834936490551394 0
0.5000000000022916 0.7401923788660708 0
0.450000000002568 0.7401923788659153 0
0.475000000002559 0.6968911086770037 0
0.5250000000022977 0.6968911086771532 0
0.5000000000025582 0.6535898384880767 0
0.5500000000023066 0.6535898384882276 0
0.5250000000025611 0.6102885682991425 0
0.4750000000028121 0.6102885682989969 0
0.5000000000028103 0.5669872981100551 0
0.5500000000025635 0.5669872981102069 0
0.5250000000028063 0.5236860279211123 0
0.4750000000030412 0.5236860279209665 0
0.5000000000030578 0.480384757732009 0
0.4500000000032693 0.4803847577318693 0
0.550000000002806 0.4803847577321572 0
0.4750000000032915 0.4370834875428958 0
0.425000000003498 0.4370834875427546 0
0.4000000000034732 0.4803847577317353 0
0.3750000000036984 0.4370834875426082 0
0.4500000000035234 0.3937822173537694 0
0.3500000000036674 0.4803847577316009 0
0.3250000000038876 0.4370834875424599 0
0.3000000000038652 0.480384757731458 0
0.2750000000040685 0.4370834875423303 0
0.300000000004101 0.3937822173533133 0
0.3250000000036455 0.5236860279205671 0
0.2750000000038643 0.5236860279204367 0
0.3000000000036323 0.5669872981095267 0
0.2500000000038759 0.5669872981093951 0
0.2750000000036351 0.6102885682984646 0
0.2500000000042286 0.3937822173531836 0
0.2750000000042906 0.3504809471641429 0
0.5750000000020488 0.6968911086773117 0
0.6000000000020613 0.653589838488381 0
0.6250000000018088 0.6968911086774712 0
0.6500000000018269 0.6535898384885305 0
0.6750000000015834 0.6968911086776691 0
0.7000000000016109 0.6535898384886839 0
0.7250000000013779 0.6968911086778475 0
0.7500000000014185 0.6535898384888349 0
0.7250000000016408 0.6102885682996964 0
0.5000000000033286 0.3937822173539184 0
0.4750000000035547 0.350480947164775 0
0.5250000000033936 0.3504809471649344 0
0.5000000000035992 0.3071796769757732 0
0.5500000000034593 0.3071796769759344 0
0.5250000000036533 0.2638784067867614 0
0.4750000000038049 0.2638784067866119 0
0.5750000000035181 0.263878406786909 0
0.600000000003332 0.3071796769761008 0
0.6250000000033975 0.2638784067870624 0
0.6500000000032086 0.3071796769762642 0
0.6750000000032939 0.2638784067872187 0
0.7000000000031037 0.3071796769764217 0
0.7250000000031906 0.263878406787371 0
0.7500000000029986 0.307179676976577 0
0.7250000000029151 0.3504809471656201 0
0.4000000000026053 0.8267949192437392 0
0.6500000000015699 0.7401923788666857 0
0.7750000000011897 0.6968911086779893 0
0.7500000000011343 0.7401923788669891 0
0.7750000000030906 0.2638784067875281 0
0.7500000000032734 0.2205771365983041 0
0.6000000000035624 0.2208123108001128 0
0.7750000000014609 0.6102885682998341 0
0.7500000000016738 0.5669872981106898 0
0.7750000000027992 0.3504809471657758 0
0.2250000000038931 0.6102885682983381 0
0.2500000000036537 0.6535898384873984 0
0.2250000000040625 0.5236860279203182 0
0.2250000000044203 0.3504809471640115 0
0.250000000004476 0.3071796769749607 0
0.3000000000043472 0.3071796769751069 0
0.2750000000045376 0.2638784067859157 0
0.2250000000046511 0.2638784067857761 0
0.2500000000047142 0.2205771365967009 0
0.3000000000045753 0.2205771365968908 0
0.5000000000038527 0.2205771365975955 0
0.8000000000009752 0.7401923788671497 0
0.7750000000009251 0.7834936490561658 0
0.20000000000436 0.3937822173530579 0
0.4250000000028267 0.696891108676852 0
0.7500000000027268 0.3937822173547952 0
0.7000000000027651 0.3937822173546293 0
0.2000000000048014 0.2205771365965681 0
0.7980916764234673 0.221678907730911 0
0.8000000000015081 0.5669872981108293 0
0.2000000000039184 0.6535898384872669 0
0.2250000000036633 0.6968911086763369 0
0.8000000000025325 0.3937822173549278 0
0.2750000000034211 0.6968911086764766 0
0.2500000000034361 0.7401923788654459 0
0.2000000000036376 0.7401923788652938 0
0.2250000000034266 0.7834936490544352 0
0.7000000000018507 0.5669872981105513 0
0.450000000004001 0.2205771365974501 0
0.5500000000018016 0.8267949192442555 0
0.2250000000048786 0.1772758664074737 0
0.7746819460734137 0.1774594949312925 0
0.7249469910150982 0.1773064711627373 0
0.4730330593134731 0.1784114801456061 0
0.4246721765557654 0.1774651353644807 0
0.8250000000012967 0.6102885682999857 0
0.1757200355506634 0.2642941195019133 0
0.8239383236133784 0.2644913659370332 0
0.1750000000049419 0.1772758664073419 0
0.8183916375006355 0.174923025484428 0
0.1746783039649812 0.7833079177599199 0
0.8243590698927326 0.7831236078859105 0
0.1750000000041648 0.6102885682982193 0
0.1999463839969418 0.826763964027718 0
0.2499910640021847 0.8267897600409819 0
0.3500000000034659 0.5669872981096504 0
0.3000000000032365 0.7401923788655804 0
0.4250000000037513 0.3504809471646322 0
0.7250000000018835 0.5236860279215998 0
0.675000000002056 0.5236860279214075 0
0.7998931783158607 0.826733245716825 0
0.7499821963867448 0.8267846403237442 0
0.7499381561838179 0.1340103017659039 0
0.1500000000038142 0.7401923788651238 0
0.8500000000008527 0.7401923788672914 0
0.8500000000013543 0.5669872981109704 0
0.8250000000015509 0.5236860279218825 0
0.1496157519564203 0.826573073530515 0
0.8492344445931477 0.8282580938315444 0
0.2249895746685948 0.8700901703629325 0
0.3250000000032419 0.6968911086766006 0
0.6250000000031541 0.350480947165312 0
0.425000000003982 0.263878406786468 0
0.4000000000028131 0.7401923788657749 0
0.8250000000026605 0.3504809471659324 0
0.8500000000022833 0.3937822173550649 0
0.6250000000020587 0.6102885682994279 0
0.5500000000031726 0.3937822173540978 0
0.1499554419106744 0.6536155641144235 0
0.5250000000039053 0.1772758664085757 0
0.175000000004553 0.3504809471638847 0
0.1500000000045173 0.3937822173529258 0
0.1750000000043071 0.4370834875420691 0
0.7750000000022639 0.4370834875438919 0
0.2749967731138163 0.8700943263872798 0
0.2999979728547133 0.8267937488690201 0
0.7749792291171917 0.8700841973591414 0
0.7249935709179869 0.8700924776013137 0
0.699995961218273 0.8267925874526434 0
0.6749982553568712 0.870095182162983 0
0.6499990360968344 0.8267943627342917 0
0.6249995485765273 0.8700959288033416 0
0.6999808578688828 0.1342208221386522 0
0.8750000000011586 0.6102885683001459 0
0.4415169912656461 0.1355529989982668 0
0.4000000000043886 0.1339745962191165 0
0.200000000005027 0.1342097704206082 0
0.1500000000050658 0.1342489661208476 0
0.2500000000049339 0.1340137919187686 0
0.1262679050971015 0.4378155128884596 0
0.1502113175197729 0.4805067619554736 0
0.0929721282719302 0.3962220452902289 0
0.1261740891387855 0.6096107076203396 0
0.1501956815267361 0.5668743213295171 0
0.575000000001747 0.7834936490552969 0
0.8500000000010854 0.6535898384891909 0
0.6749879748163276 0.1773220048543272 0
0.6543590194275944 0.1306099971378536 0
0.3749453627629684 0.1773074112341555 0
0.3499908937977255 0.1342150278921699 0
0.7000000000021809 0.4803847577325818 0
0.6500000000022814 0.4803847577324307 0
0.6250000000022553 0.523686027921308 0
0.2499977246321407 0.9133961459358156 0
0.3249991243300195 0.8700956838625175 0
0.7499954666727928 0.9133948423049204 0
0.8737366029890414 0.3506176189935664 0
0.1219165141787183 0.1799590155491105 0
0.8734906702583454 0.5228146159885032 0
0.8497484450444533 0.4802395224107534 0
0.1002899376795806 0.1316757504279994 0
0.8980457393503875 0.4791784703146161 0
0.225000000005128 0.09067332602916368 0
0.72500000000368 0.09067332603065523 0
0.3676415773425299 0.09054386683861536 0
0.1257003525943285 0.08666514756862381 0
0.7740489233390661 0.09263022172104327 0
0.2750000000050302 0.09067332602931524 0
0.9068046502721685 0.3957859913825046 0
0.09288243462321182 0.6521465566749662 0
0.8966681168315206 0.6527831203157299 0
0.9216134251527461 0.612415564896481 0
0.1060419291082951 0.5625331428900888 0
0.1031015326402265 0.4798549629672008 0
0.1999978832180937 0.9133962374956366 0
0.3750000000020673 0.9566987298107303 0
0.04489123220368085 0.4233143273356466 0
0.04330127018948145 0.3750000000019139 0
0.6749991662201145 0.7834931676720513 0
0.5250000000017783 0.9566987298109204 0
0.5500000000017051 0.9133974596220829 0
0.04047177826541108 0.5286859069433754 0
0.200035219590112 0.4804050917686167 0
0.5749999999988258 0.0433012701892318 0
0.5499999999987379 0.08636736617614343 0
0.5999999999986695 0.08660254037847133 0
0.5676174914301867 0.130019363752937 0
0.5021997259757514 0.08790707428594882 0
0.5999997641133114 0.8267947830543438 0
0.375000000003047 0.6968911086767205 0
0.4000000000030752 0.6535898384877832 0
0.3500000000032738 0.6535898384876488 0
0.6230330593091171 0.04216565645256035 0
0.9503602260223942 0.4764435580840985 0
0.4757332419911173 0.04350747323949222 0
0.3500000000030226 0.7401923788656739 0
0.04312695023043699 0.2750000000011788 0
0.09380458231327748 0.3034333296038577 0
0.08472190821984957 0.2496529261264079 0
0.6249998764851525 0.7834935777434244 0
0.04944316498946611 0.1278288895828558 0
0.874677707211419 0.9568848056389353 0
0.8996239917466857 0.9136145480879048 0
0.9539420065119444 0.9185604831314513 0
0.9244549758285064 0.8742095752828073 0
0.8498836164927936 0.9134646536714577 0
0.9587555512832956 0.7248789066139179 0
0.9562013293823598 0.7757732015284438 0
0.9184821428245897 0.7950065669211505 0
0.9088491400056742 0.7463281188408418 0
0.125408650881289 0.9569346645065924 0
0.1500677556841993 0.9134365783831353 0
0.09970219570384353 0.9148477797978299 0
0.1248976172248242 0.8703074549698326 0
0.07473874707061097 0.8715535509100993 0
0.09829497231041108 0.8264818852486295 0
0.07326003256926046 0.7789198390761151 0
0.1230698237721369 0.7823792612879544 0
0.09878574235550833 0.7376392996117214 0
0.1245411409141554 0.6965072319810766 0
0.8749999999996549 0.04330127018932779 0
0.8996777072114198 0.0864164645505139 0
0.9539496801497707 0.08144394724537365 0
0.9249999999997272 0.1299038105678375 0
0.8749999999997305 0.1299038105678337 0
0.9035166642520106 0.1726435290363312 0
0.9269773361847912 0.2209945155569595 0
0.8828522130646403 0.2197185135429037 0
0.9039360857676514 0.2598888995996708 0
0.0428741239190968 0.2254567109946705 0
0.5000000000018968 0.913397459621931 0
0.2750000000047406 0.1772823990243703 0
0.3750000000033044 0.6102885682987107 0
0.6750000000029986 0.3504809471654688 0
0.6500000000027919 0.3937822173544777 0
0.6000000000029506 0.3937822173542821 0
0.8511152484141771 0.0859323027555739 0
0.3750000000034707 0.5236860279207 0
0.4250000000032721 0.5236860279208292 0
0.2250058699351918 0.4370868765484338 0
0.6500000000020589 0.5669872981104448 0
0.2500068482568607 0.4803887115719323 0
0.3250000000041389 0.3504809471642878 0
0.3500000000041915 0.3071796769752759 0
0.3250000000043711 0.2638784067860994 0
0.6999998610378171 0.7401922986362148 0
0.3250000000034324 0.6102885682985932 0
0.3750000000028333 0.7834936490547127 0
0.1250000000046856 0.3504809471637541 0
0.2000326135911801 0.5669684686460073 0
0.9566987298109043 0.3749999999990479 0
0.3249996621449996 0.7834934539922138 0
0.9503087453251761 0.2699827390316598 0
0.04694262906676906 0.730731088947708 0
0.04297403200547421 0.6265728793291658 0
0.7998230539379452 0.3072818368349619 0
0.7249961974775014 0.783491453667968 0
0.4500000000037803 0.3071796769756312 0
0.4500000000030567 0.5669872981099173 0
0.5999999794157252 0.740192366981069 0
0.6250000000012257 0.956698729811208 0
0.7750000000017121 0.5236860279217855 0
0.3500000000039227 0.3937822173534563 0
0.5750000000023077 0.6102885682992949 0
0.4500000000028174 0.6535898384879287 0
0.399936256555882 0.2206139388943269 0
0.4250000000025749 0.7834936490548312 0
0.5499999965710205 0.74019237688534 0
0.300000000003443 0.6535898384875303 0
0.8473552782120574 0.3086078160182973 0
0.1281010732098168 0.521985462230611 0
0.5250000000030891 0.4370834875430482 0
0.5500000000037037 0.2208515065003595 0
0.200120005928916 0.3072489624275456 0
0.1749160971399772 0.6968314168315868 0
0.6750000000018411 0.6102885682995557 0
0.2749981165019995 0.7834925616146129 0
0.1755959842402801 0.5234043556417572 0
0.5750000000032437 0.3504809471651101 0
0.6999891609741102 0.2205899271313311 0
0.4250000000030733 0.6102885682988605 0
0.8000000000012428 0.653589838488998 0
0.8989072111903966 0.5674595613571821 0
0.400000000003723 0.3937822173536139 0
0.7943478011792943 0.1302763156924941 0
0.5750000000028229 0.4370834875432202 0
0.1526136415546507 0.222317847259781 0
0.349999459889641 0.8267946074091388 0
0.4000000000032738 0.566987298109778 0
0.3750000000039445 0.350480947164462 0
0.6499961893007071 0.2206261537947978 0
0.5250000000018636 0.8700961894330919 0
0.1749191611248457 0.8700945797949617 0
0.4000000000039777 0.3071796769754792 0
0.6000000000022948 0.5669872981103287 0
0.6278883519275014 0.1751709064053904 0
0.725000000002551 0.4370834875437427 0
0.8250000000010307 0.6968911086781542 0
0.1500000000047325 0.3071796769747273 0
0.5750000000025338 0.5236860279212467 0
0.3749997640383259 0.8700960531985018 0
0.374989376096132 0.263884540502461 0
0.2999984823036835 0.1342574637526623 0
0.8750220831852373 0.698297427531736 0
0.3499921644481561 0.2205816604576105 0
0.324996828725888 0.1773004178322667 0
0.60000000000252 0.4803847577323057 0
0.5999999247639087 0.9133974161838931 0
0.5749998729098529 0.8700961160568347 0
0.6250000000026112 0.4370834875433869 0
0.7500000000019551 0.4803847577328481 0
0.6499996214501191 0.9133972410659267 0
0.6750000000025302 0.4370834875435415 0
0.6999978190665408 0.9133962004596708 0
0.7999580741756567 0.4803605518458483 0
0.8249510865381373 0.4370552473424492 0
0.8750000000016355 0.4370834875442089 0
0.7249988809569168 0.9566980837312649 0
0.3499998147296154 0.9133973526542283 0
0.7749990579382585 0.9566981859117299 0
0.2999989061349257 0.9133968280769325 0
0.7999762283700568 0.9134061330820591 0
0.2749994384623164 0.9566984056056734 0
0.2249997850877559 0.9566986057296685 0
0.8248277828147907 0.8703404188491353 0
0.8746708019124424 0.8730188697012738 0
0.9556214107062668 0.5727643286166932 0
0.7745561437936206 0.043881178355571 0
0.7249768921170719 0.04024531919157997 0
0.4557198091579708 0.08980326450140118 0
0.5249999999987419 0.128492765353972 0
0.6759130692009392 0.09303045710589807 0
0.5789872346893929 0.1757079288075845 0
0.378933292758839 0.04482305776418653 0
0.3235261906896325 0.09859819094037169 0
0.2749999999993393 0.04189022497512714 0
0.2249999999997788 0.04014166689081812 0
0.1750364615099247 0.09357732335232757 0
0.1256269153379399 0.03436774261860332 0
0.8999915048114224 0.3066980066328152 0
0.07653366928792334 0.9589360754928065 0
0.07949372566847451 0.04535149196019569 0
0.08079282901695585 0.2040094380060912 0
0.8731950895225808 0.7849718954547216 0
0.1286849721219508 0.2632857858674796 0
0.922918371002637 0.690366941852774 0
0.07971248213310084 0.3500194745806207 0
0.9186721550388954 0.3507233439931383 0
0.08079696066783607 0.6985184879786166 0
0.07946707618584178 0.0932879695615977 0
0.07939676863472066 0.5962221487921084 0
0.9652238251830861 0.6249999999990128 0
0.08353987248266526 0.4428790255157551 0
0.9170684574315905 0.4422068966975861 0
0.03289015209577214 0.8734844739813751 0
0.9662535686376527 0.8747479960174755 0
0.9666099939270881 0.1255668293348769 0
0.08405597845952209 0.51845755632113 0
0.9159440215429209 0.5184575563213556 0
0.03292596253440492 0.7770222055949709 0
0.9673718682343961 0.224999999999485 0
0.899639688342863 0.8363113500470758 0
0.8644641162443862 0.268768438329319 0
0.8393505360899767 0.2251366649393222 0
0.9633974596214028 0.9633974596214232 0
0.03660254037856588 0.03660254037864849 0
0.03660254037858459 0.9633974596214154 0
0.9633974596214202 0.03660254037851772 0
0.6381983558600389 0.07978885795832312 0
0.4881983558606345 0.1407882786424706 0
0.412224696496577 0.09206090528648275 0
0.612326631927983 0.1254031448381036 0
0.8601137494846094 0.1719452377114084 0
0.8360694560566997 0.1259305705029955 0
0.8120130719894395 0.07966679003145845 0
0.07963716592537345 0.1655249994318271 0
0.113745973018425 0.223845002561774 0
0.9346055322440765 0.6483585846695897 0
0.06933409850426978 0.5534481336997569 0
$EndNodes
$Elements
5 1024 1 1024
1 1 1 20
1 1 5 
2 5 6 
3 6 7 
4 7 8 
5 8 9 
6 9 10 
7 10 11 
8 11 12 
9 12 13 
10 13 14 
11 14 15 
12 15 16 
13 16 17 
14 17 18 
15 18 19 
16 19 20 
17 20 21 
18 21 22 
19 22 23 
20 23 2 
1 2 1 20
21 2 24 
22 24 25 
23 25 26 
24 26 27 
25 27 28 
26 28 29 
27 29 30 
28 30 31 
29 31 32 
30 32 33 
31 33 34 
32 34 35 
33 35 36 
34 36 37 
35 37 38 
36 38 39 
37 39 40 
38 40 41 
39 41 42 
40 42 3 
1 3 1 20
41 3 43 
42 43 44 
43 44 45 
44 45 46 
45 46 47 
46 47 48 
47 48 49 
48 49 50 
49 50 51 
50 51 52 
51 52 53 
52 53 54 
53 54 55 
54 55 56 
55 56 57 
56 57 58 
57 58 59 
58 59 60 
59 60 61 
60 61 4 
1 4 1 20
61 4 62 
62 62 63 
63 63 64 
64 64 65 
65 65 66 
66 66 67 
67 67 68 
68 68 69 
69 69 70 
70 70 71 
71 71 72 
72 72 73 
73 73 74 
74 74 75 
75 75 76 
76 76 77 
77 77 78 
78 78 79 
79 79 80 
80 80 1 
2 1 2 944
81 461 417 493 
82 387 88 474 
83 344 239 438 
84 84 461 493 
85 301 298 462 
86 462 298 463 
87 302 297 470 
88 470 297 471 
89 383 332 433 
90 299 87 468 
91 87 299 469 
92 92 298 466 
93 297 100 471 
94 298 92 463 
95 100 297 472 
96 321 254 465 
97 254 321 467 
98 302 87 469 
99 87 302 470 
100 300 100 472 
101 100 300 473 
102 363 387 474 
103 430 467 506 
104 464 322 504 
105 468 101 505 
106 467 321 506 
107 299 468 505 
108 269 464 504 
109 276 311 312 
110 102 303 385 
111 476 300 484 
112 473 300 476 
113 304 85 389 
114 363 361 387 
115 353 351 388 
116 347 106 349 
117 344 438 480 
118 362 498 507 
119 498 224 507 
120 243 478 496 
121 433 332 479 
122 239 344 478 
123 388 351 494 
124 387 361 495 
125 311 276 487 
126 303 102 488 
127 24 25 357 
128 41 42 338 
129 478 343 496 
130 332 383 481 
131 304 389 485 
132 349 106 489 
133 349 94 350 
134 358 99 360 
135 82 308 492 
136 296 328 493 
137 24 357 502 
138 338 42 499 
139 350 94 351 
140 360 99 361 
141 474 88 482 
142 85 304 483 
143 306 417 461 
144 98 339 496 
145 106 347 475 
146 276 312 481 
147 385 303 482 
148 316 82 492 
149 328 84 493 
150 335 295 510 
151 308 82 487 
152 328 296 488 
153 225 242 352 
154 343 98 496 
155 295 335 484 
156 360 361 362 
157 238 352 353 
158 238 353 354 
159 242 350 352 
160 238 225 352 
161 350 351 352 
162 332 333 479 
163 362 361 363 
164 354 253 409 
165 94 349 489 
166 339 98 490 
167 99 358 491 
168 485 103 513 
169 238 354 409 
170 304 253 354 
171 352 351 353 
172 242 348 350 
173 348 242 427 
174 346 348 427 
175 309 346 427 
176 309 97 346 
177 58 97 458 
178 97 309 458 
179 74 90 312 
180 111 109 310 
181 109 54 310 
182 278 405 412 
183 201 431 447 
184 52 53 81 
185 71 72 82 
186 310 89 453 
187 336 93 340 
188 405 275 412 
189 214 279 323 
190 453 89 455 
191 44 45 336 
192 323 279 334 
193 52 81 314 
194 71 82 316 
195 176 313 334 
196 104 51 314 
197 103 70 316 
198 187 317 376 
199 318 16 327 
200 45 93 336 
201 320 318 327 
202 113 115 426 
203 81 109 110 
204 73 74 312 
205 70 71 316 
206 51 52 314 
207 278 307 405 
208 176 334 394 
209 33 34 84 
210 14 15 83 
211 342 343 344 
212 315 314 365 
213 342 98 343 
214 39 98 342 
215 154 156 380 
216 326 245 403 
217 331 76 364 
218 43 44 105 
219 311 73 312 
220 313 176 380 
221 317 374 376 
222 333 331 364 
223 55 89 310 
224 62 63 106 
225 245 324 330 
226 33 84 328 
227 230 367 381 
228 14 83 329 
229 230 372 423 
230 275 317 412 
231 367 326 381 
232 81 110 365 
233 446 264 448 
234 102 32 328 
235 81 53 109 
236 334 279 394 
237 101 13 329 
238 324 245 326 
239 288 455 457 
240 104 314 315 
241 266 442 443 
242 366 437 440 
243 365 113 426 
244 324 248 330 
245 381 326 403 
246 370 252 413 
247 55 56 89 
248 348 349 350 
249 105 44 336 
250 374 141 376 
251 148 141 374 
252 79 107 335 
253 176 154 380 
254 13 14 329 
255 32 33 328 
256 74 75 90 
257 97 345 346 
258 265 323 334 
259 367 230 423 
260 53 54 109 
261 90 331 332 
262 313 265 334 
263 355 108 356 
264 348 347 349 
265 346 347 348 
266 90 75 331 
267 315 365 426 
268 110 113 365 
269 22 108 355 
270 83 322 329 
271 375 212 410 
272 54 55 310 
273 97 59 345 
274 356 108 357 
275 355 356 371 
276 317 187 412 
277 356 359 371 
278 431 285 447 
279 246 369 370 
280 156 178 380 
281 341 342 344 
282 346 345 347 
283 330 248 382 
284 36 37 91 
285 58 59 97 
286 289 260 422 
287 356 357 358 
288 91 37 341 
289 83 318 319 
290 341 38 342 
291 17 92 327 
292 314 81 365 
293 246 368 369 
294 174 201 368 
295 17 18 92 
296 38 39 342 
297 246 370 413 
298 39 40 98 
299 337 336 340 
300 115 214 426 
301 211 209 411 
302 251 375 410 
303 79 80 107 
304 82 72 311 
305 57 58 458 
306 259 229 260 
307 259 260 289 
308 83 319 322 
309 194 193 366 
310 198 148 374 
311 256 257 274 
312 95 78 335 
313 256 198 257 
314 274 275 308 
315 197 235 236 
316 274 257 275 
317 171 174 368 
318 236 261 262 
319 262 261 290 
320 359 358 360 
321 368 201 369 
322 110 111 112 
323 161 163 413 
324 22 23 108 
325 59 60 345 
326 209 231 411 
327 193 215 366 
328 175 382 401 
329 236 235 261 
330 178 197 391 
331 96 21 355 
332 230 143 372 
333 77 95 364 
334 382 248 401 
335 143 138 372 
336 83 15 318 
337 215 271 273 
338 437 284 440 
339 210 225 238 
340 382 175 422 
341 131 129 373 
342 263 262 264 
343 96 355 371 
344 78 79 335 
345 77 78 95 
346 110 112 113 
347 75 76 331 
348 273 297 302 
349 110 109 111 
350 140 138 143 
351 135 131 373 
352 252 161 413 
353 215 273 366 
354 138 135 372 
355 76 77 364 
356 210 238 409 
357 332 331 333 
358 236 262 263 
359 144 145 146 
360 255 198 256 
361 21 22 355 
362 16 17 327 
363 20 21 96 
364 144 143 145 
365 231 208 245 
366 191 194 379 
367 140 143 144 
368 169 171 368 
369 273 271 297 
370 167 169 246 
371 72 73 311 
372 37 38 341 
373 275 257 317 
374 231 245 330 
375 340 93 456 
376 197 226 235 
377 287 375 429 
378 277 253 304 
379 185 186 205 
380 231 330 386 
381 171 173 174 
382 234 212 375 
383 185 205 227 
384 372 135 373 
385 231 386 411 
386 356 358 359 
387 286 234 287 
388 373 129 393 
389 212 158 410 
390 185 227 384 
391 252 370 420 
392 287 234 375 
393 265 264 266 
394 15 16 318 
395 144 146 187 
396 380 178 391 
397 171 172 173 
398 174 200 201 
399 267 217 281 
400 187 146 384 
401 263 313 391 
402 319 320 321 
403 246 169 368 
404 139 138 140 
405 178 196 197 
406 179 203 222 
407 146 147 185 
408 263 264 265 
409 145 143 230 
410 227 253 277 
411 174 173 184 
412 174 184 200 
413 227 278 384 
414 377 190 378 
415 236 263 391 
416 146 145 147 
417 10 11 87 
418 136 135 138 
419 149 190 377 
420 164 162 165 
421 184 173 390 
422 145 230 381 
423 249 184 390 
424 227 205 253 
425 200 184 207 
426 185 147 186 
427 200 207 258 
428 152 176 394 
429 372 373 423 
430 162 160 392 
431 267 281 282 
432 163 167 413 
433 149 189 190 
434 169 170 171 
435 146 185 384 
436 250 291 303 
437 188 148 198 
438 233 212 234 
439 190 191 379 
440 278 277 307 
441 285 234 286 
442 150 394 402 
443 179 222 390 
444 270 284 299 
445 191 193 194 
446 144 187 376 
447 142 149 377 
448 207 249 250 
449 394 279 402 
450 183 158 212 
451 199 119 248 
452 250 249 291 
453 269 219 270 
454 139 142 397 
455 12 13 101 
456 272 295 300 
457 240 204 241 
458 313 380 391 
459 265 266 323 
460 165 162 392 
461 160 232 392 
462 114 175 401 
463 425 181 430 
464 159 252 406 
465 187 384 412 
466 173 172 179 
467 190 189 191 
468 118 116 119 
469 31 32 102 
470 31 102 385 
471 215 223 271 
472 126 125 393 
473 152 154 176 
474 30 31 385 
475 207 184 249 
476 164 165 195 
477 88 30 385 
478 129 126 393 
479 29 30 88 
480 128 126 129 
481 124 122 125 
482 167 168 169 
483 248 119 401 
484 247 165 392 
485 227 277 278 
486 134 131 135 
487 67 68 85 
488 218 219 269 
489 245 208 403 
490 293 294 296 
491 270 283 284 
492 114 112 175 
493 116 114 401 
494 173 179 390 
495 293 241 294 
496 209 208 231 
497 197 236 391 
498 113 112 114 
499 171 170 172 
500 140 144 376 
501 183 212 233 
502 121 123 150 
503 120 119 199 
504 150 151 152 
505 240 241 293 
506 233 234 285 
507 270 219 283 
508 195 165 213 
509 128 129 130 
510 147 145 381 
511 105 336 337 
512 378 190 379 
513 213 165 247 
514 124 125 126 
515 229 211 411 
516 213 247 400 
517 325 326 367 
518 28 29 387 
519 68 69 389 
520 188 198 255 
521 219 213 400 
522 29 88 387 
523 308 275 405 
524 150 152 394 
525 136 139 397 
526 85 68 389 
527 142 377 397 
528 287 429 434 
529 182 158 183 
530 150 123 151 
531 156 177 178 
532 118 119 120 
533 281 217 414 
534 257 198 374 
535 182 183 204 
536 218 213 219 
537 263 265 313 
538 133 137 159 
539 125 122 399 
540 199 248 324 
541 159 161 252 
542 127 126 128 
543 48 49 86 
544 195 213 218 
545 241 204 396 
546 152 151 153 
547 193 202 215 
548 160 137 232 
549 128 130 132 
550 124 126 127 
551 121 120 122 
552 69 70 103 
553 123 122 124 
554 115 117 214 
555 121 150 402 
556 214 117 279 
557 157 155 158 
558 260 229 411 
559 49 50 395 
560 149 188 189 
561 159 137 160 
562 118 120 121 
563 50 51 104 
564 121 122 123 
565 325 324 326 
566 141 140 376 
567 119 116 401 
568 153 151 251 
569 161 160 162 
570 163 162 164 
571 199 324 325 
572 133 134 137 
573 142 148 149 
574 115 114 116 
575 393 125 415 
576 384 278 412 
577 66 67 388 
578 130 129 131 
579 220 204 240 
580 204 183 396 
581 134 135 136 
582 169 168 170 
583 279 117 402 
584 157 158 182 
585 291 249 404 
586 120 199 399 
587 67 85 388 
588 237 217 267 
589 117 118 402 
590 69 103 389 
591 163 166 167 
592 283 219 400 
593 183 233 396 
594 406 252 420 
595 117 116 118 
596 256 274 276 
597 113 114 115 
598 125 399 415 
599 118 121 402 
600 386 382 422 
601 124 127 398 
602 195 218 254 
603 319 318 320 
604 122 120 399 
605 130 131 133 
606 151 123 398 
607 136 138 139 
608 123 124 398 
609 167 166 168 
610 235 226 243 
611 199 325 399 
612 390 222 404 
613 249 390 404 
614 179 180 203 
615 197 196 226 
616 139 140 141 
617 232 418 424 
618 210 211 225 
619 186 147 403 
620 206 209 210 
621 159 160 161 
622 167 246 413 
623 191 192 193 
624 86 49 395 
625 154 153 155 
626 253 205 409 
627 323 266 443 
628 251 151 398 
629 225 228 242 
630 247 428 436 
631 203 216 224 
632 317 257 374 
633 152 153 154 
634 205 186 206 
635 208 186 403 
636 178 177 196 
637 255 256 383 
638 50 104 395 
639 133 131 134 
640 142 141 148 
641 115 116 117 
642 182 204 220 
643 399 325 415 
644 132 406 420 
645 386 260 411 
646 377 378 424 
647 139 141 142 
648 149 148 188 
649 232 137 418 
650 325 367 415 
651 168 166 181 
652 147 381 403 
653 158 155 410 
654 161 162 163 
655 281 425 430 
656 133 159 406 
657 156 155 157 
658 132 130 406 
659 237 267 298 
660 179 172 180 
661 191 189 192 
662 130 133 406 
663 244 229 259 
664 220 268 280 
665 26 27 99 
666 338 337 339 
667 164 195 407 
668 216 180 217 
669 271 223 272 
670 206 186 208 
671 163 164 166 
672 200 258 431 
673 154 155 156 
674 155 153 410 
675 220 240 268 
676 330 382 386 
677 153 251 410 
678 215 202 223 
679 172 170 414 
680 237 298 301 
681 366 273 437 
682 189 188 408 
683 370 369 444 
684 216 217 237 
685 7 8 100 
686 181 166 407 
687 202 192 221 
688 157 182 416 
689 256 276 383 
690 203 180 216 
691 137 134 418 
692 418 397 424 
693 136 397 418 
694 280 268 305 
695 156 157 177 
696 240 293 417 
697 247 392 428 
698 220 280 416 
699 195 254 407 
700 206 210 409 
701 393 415 423 
702 206 208 209 
703 166 164 407 
704 205 206 409 
705 193 192 202 
706 226 196 239 
707 444 369 447 
708 134 136 418 
709 210 209 211 
710 192 189 408 
711 188 255 408 
712 180 172 414 
713 281 414 425 
714 228 211 229 
715 182 220 416 
716 375 251 429 
717 221 192 408 
718 415 367 423 
719 45 46 93 
720 175 112 435 
721 217 180 414 
722 168 181 425 
723 268 240 417 
724 224 216 419 
725 128 132 434 
726 225 211 228 
727 228 229 244 
728 272 292 295 
729 373 393 423 
730 177 157 416 
731 289 422 435 
732 64 65 94 
733 428 378 436 
734 170 168 425 
735 369 201 447 
736 244 288 309 
737 272 223 292 
738 237 301 419 
739 397 377 424 
740 305 268 306 
741 442 315 443 
742 414 170 425 
743 251 398 429 
744 282 281 430 
745 201 200 431 
746 244 259 288 
747 216 237 419 
748 398 127 429 
749 392 232 428 
750 260 386 422 
751 434 132 441 
752 105 337 338 
753 422 175 435 
754 202 221 421 
755 431 258 445 
756 424 378 428 
757 239 196 432 
758 429 127 434 
759 416 280 432 
760 242 228 427 
761 306 268 417 
762 177 416 432 
763 408 255 433 
764 86 446 448 
765 127 128 434 
766 223 202 421 
767 250 303 451 
768 196 177 432 
769 194 366 440 
770 294 449 450 
771 244 309 427 
772 232 424 428 
773 273 302 437 
774 239 432 438 
775 286 287 441 
776 255 383 433 
777 292 223 421 
778 400 247 436 
779 112 111 435 
780 378 379 436 
781 379 194 439 
782 432 280 438 
783 214 323 443 
784 221 408 433 
785 400 436 439 
786 228 244 427 
787 287 434 441 
788 436 379 439 
789 283 400 439 
790 280 305 438 
791 439 194 440 
792 445 258 449 
793 283 439 440 
794 284 283 440 
795 132 420 441 
796 264 262 448 
797 233 285 445 
798 104 315 442 
799 294 241 449 
800 285 431 445 
801 207 250 450 
802 455 89 457 
803 426 214 443 
804 48 86 452 
805 395 104 442 
806 286 444 447 
807 449 258 450 
808 315 426 443 
809 286 441 444 
810 395 442 446 
811 266 264 446 
812 396 233 445 
813 420 370 444 
814 285 286 447 
815 450 250 451 
816 86 395 446 
817 442 266 446 
818 93 46 454 
819 441 420 444 
820 340 456 459 
821 396 445 449 
822 56 57 457 
823 262 290 448 
824 241 396 449 
825 288 259 455 
826 258 207 450 
827 459 243 460 
828 296 294 451 
829 111 310 453 
830 86 448 452 
831 47 48 452 
832 235 243 459 
833 309 288 458 
834 47 452 454 
835 294 450 451 
836 452 290 454 
837 46 47 454 
838 289 453 455 
839 339 337 460 
840 93 454 456 
841 448 290 452 
842 259 289 455 
843 435 111 453 
844 89 56 457 
845 290 261 456 
846 289 435 453 
847 457 57 458 
848 456 261 459 
849 288 457 458 
850 454 290 456 
851 340 459 460 
852 261 235 459 
853 337 340 460 
854 353 388 483 
855 480 305 512 
856 307 485 513 
857 344 343 478 
858 34 35 461 
859 329 322 464 
860 92 18 463 
861 20 96 462 
862 319 321 465 
863 298 267 466 
864 87 11 468 
865 12 101 468 
866 407 254 467 
867 437 302 469 
868 430 181 467 
869 10 87 470 
870 297 271 472 
871 100 8 471 
872 272 300 472 
873 299 284 469 
874 7 100 473 
875 508 419 509 
876 507 224 508 
877 224 419 508 
878 419 301 509 
879 282 430 506 
880 503 282 506 
881 347 345 475 
882 60 61 475 
883 5 6 476 
884 84 34 461 
885 19 20 462 
886 19 462 463 
887 101 329 464 
888 18 19 463 
889 322 319 465 
890 267 282 466 
891 181 407 467 
892 11 12 468 
893 284 437 469 
894 9 10 470 
895 9 470 471 
896 8 9 471 
897 271 272 472 
898 6 7 473 
899 364 95 477 
900 101 464 505 
901 322 465 504 
902 466 282 503 
903 91 480 512 
904 243 226 478 
905 362 363 497 
906 421 221 479 
907 362 497 498 
908 95 335 510 
909 360 362 507 
910 461 35 486 
911 351 94 494 
912 361 99 495 
913 341 344 480 
914 438 305 480 
915 291 404 474 
916 90 332 481 
917 82 311 487 
918 102 328 488 
919 107 476 484 
920 345 60 475 
921 333 364 477 
922 277 304 485 
923 306 461 486 
924 36 91 486 
925 462 96 509 
926 276 274 487 
927 451 303 488 
928 106 63 489 
929 98 40 490 
930 64 94 489 
931 26 99 491 
932 6 473 476 
933 405 307 492 
934 417 293 493 
935 66 388 494 
936 94 65 494 
937 28 387 495 
938 99 27 495 
939 389 103 485 
940 304 354 483 
941 460 243 496 
942 301 462 509 
943 203 224 498 
944 80 1 500 
945 1 5 500 
946 23 2 502 
947 2 24 502 
948 357 108 502 
949 3 43 499 
950 42 3 499 
951 61 4 501 
952 4 62 501 
953 105 338 499 
954 327 92 503 
955 269 270 505 
956 254 218 504 
957 335 107 484 
958 303 291 482 
959 383 276 481 
960 226 239 478 
961 92 466 503 
962 464 269 505 
963 465 254 504 
964 221 433 479 
965 388 85 483 
966 474 404 497 
967 363 474 497 
968 91 341 480 
969 312 90 481 
970 88 385 482 
971 291 474 482 
972 354 353 483 
973 292 421 511 
974 41 338 490 
975 357 25 491 
976 300 295 484 
977 307 277 485 
978 35 36 486 
979 295 292 510 
980 274 308 487 
981 296 451 488 
982 477 292 511 
983 63 64 489 
984 25 26 491 
985 338 339 490 
986 40 41 490 
987 358 357 491 
988 308 405 492 
989 293 296 493 
990 65 66 494 
991 27 28 495 
992 421 479 511 
993 339 460 496 
994 292 477 510 
995 475 61 501 
996 5 476 500 
997 492 307 513 
998 404 222 497 
999 497 222 498 
1000 222 203 498 
1001 107 80 500 
1002 108 23 502 
1003 43 105 499 
1004 62 106 501 
1005 320 327 503 
1006 218 269 504 
1007 270 299 505 
1008 486 91 512 
1009 320 503 506 
1010 321 320 506 
1011 359 360 507 
1012 371 359 508 
1013 371 508 509 
1014 359 507 508 
1015 96 371 509 
1016 477 95 510 
1017 305 306 512 
1018 103 316 513 
1019 106 475 501 
1020 476 107 500 
1021 479 333 511 
1022 333 477 511 
1023 306 486 512 
1024 316 492 513 
$EndElements
